# xmcd
#
# Track frame offsets: 
#        150
#        8837
#        20812
#        34140
#        43807
#        55357
#        68495
#        79975
#        92202
#        103350
#        115282
#        127702
#        137940
#        149017
#        159647
#        170285
#        180492
#
# Disc length: 2699 seconds
#
# Revision: 1
# Processed by: cddbd v1.5.2PL0 Copyright (c) Steve Scherf et al.
# Submitted via: ExactAudioCopy v1.0b1
#
DISCID=f20a8911
DTITLE=Dee Clark - Take Care Of Business
DYEAR=1998
DGENRE=R&B
TTITLE0=Crossfire Time
TTITLE1=It's Raining
TTITLE2=Come Closer
TTITLE3=I'm Going Home
TTITLE4=That's My Girl
TTITLE5=In My Apartment
TTITLE6=Heartbreak
TTITLE7=Warm Summer Breezes
TTITLE8=I Ain't Gonna Be A Fool
TTITLE9=T.C.B.
TTITLE10=I Can't Run Away
TTITLE11=I Don't Need (Nobody Like You)
TTITLE12=She's My Baby
TTITLE13=It's Impossible
TTITLE14=Hot Potato
TTITLE15=Ole Fashun Love
TTITLE16=Nobody But You (Parts 1 and 2)
EXTD=
EXTT0=
EXTT1=
EXTT2=
EXTT3=
EXTT4=
EXTT5=
EXTT6=
EXTT7=
EXTT8=
EXTT9=
EXTT10=
EXTT11=
EXTT12=
EXTT13=
EXTT14=
EXTT15=
EXTT16=
PLAYORDER=
